<svg xmlns="http://www.w3.org/2000/svg" xmlns:v="https://svgstorm.com"
viewBox = "0 0 1024 1024"
width="1024"
height="1024">
<g fill="None" fill-opacity="0.0" stroke="#7457FF" stroke-opacity="1.00" stroke-width="0.3"><path d="
M 0.00 1024.00 
L 1024.00 1024.00
L 1024.00 0.00
L 0.00 0.00
L 0.00 1024.00
M 719.00 495.00 
C 713.35 497.33 704.49 496.43 706.00 506.00 C 707.51 515.57 705.29 522.17 706.00 531.00 C 706.71 539.83 705.69 546.55 706.00 555.00 C 706.31 563.45 705.84 571.70 706.00 580.00 C 706.16 588.30 705.89 595.79 706.00 604.00 C 706.11 612.21 705.88 620.86 706.00 629.00 C 706.12 637.14 705.77 644.95 706.00 653.00 C 706.23 661.05 706.41 670.15 704.00 676.00
C 701.46 685.94 693.85 694.97 684.00 698.00
C 678.10 701.77 665.62 699.53 656.00 700.00 C 646.38 700.47 633.79 699.61 624.00 700.00 C 614.21 700.39 601.38 699.44 592.00 700.00 C 582.62 700.56 573.15 699.65 570.08 689.92 C 567.00 680.20 569.77 669.27 569.00 659.00 C 568.23 648.73 569.54 637.26 569.00 627.00 C 568.46 616.74 569.66 604.98 569.00 595.00 C 568.34 585.02 570.23 572.23 569.00 563.00 C 567.77 553.77 563.00 549.41 555.75 544.25 C 548.51 539.08 537.30 540.06 528.00 540.00 C 518.70 539.94 505.46 539.92 496.00 540.00 C 486.54 540.08 475.83 539.12 467.92 543.92 C 460.02 548.73 456.82 553.94 455.01 563.01 C 453.20 572.07 454.26 583.96 454.00 594.00 C 453.74 604.04 454.34 615.70 454.00 626.00 C 453.66 636.30 454.65 647.67 454.00 658.00 C 453.35 668.33 455.55 679.63 453.67 689.67 C 451.79 699.71 440.82 700.70 432.00 700.00 C 423.18 699.30 408.98 700.79 400.00 700.00 C 391.02 699.21 376.00 701.39 368.00 700.00 C 360.00 698.61 341.86 704.26 339.00 697.00
C 338.55 696.85 338.00 697.00 338.00 697.00
C 333.86 700.03 325.20 690.61 321.70 685.30 C 318.19 679.99 316.01 668.50 317.00 660.00 C 317.99 651.50 316.47 639.43 317.00 630.00 C 317.53 620.57 316.57 609.98 317.00 600.00 C 317.43 590.02 316.38 579.36 317.00 569.00 C 317.62 558.64 315.74 549.91 317.00 539.00 C 318.26 528.09 314.25 521.06 317.00 509.00 C 319.75 496.94 309.00 496.83 300.33 495.67 C 291.66 494.52 287.85 484.24 288.00 479.00
C 288.60 458.09 309.19 448.30 323.25 435.25 C 337.31 422.20 351.78 410.71 366.25 398.25 C 380.71 385.78 393.55 373.81 408.25 361.25 C 422.95 348.68 436.19 337.41 451.25 324.25 C 466.31 311.09 477.62 301.89 493.75 287.75 C 509.89 273.61 533.81 287.36 546.75 301.25 C 559.69 315.14 574.98 325.47 588.75 338.25 C 602.53 351.03 617.36 363.36 631.70 375.30 C 646.03 387.24 658.76 401.38 673.75 412.25 C 688.75 423.11 700.75 440.08 716.75 449.25 C 732.74 458.43 746.31 491.36 719.00 495.00 Z"/>
</g>
<g fill="None" fill-opacity="0.0" stroke="#FEFEFE" stroke-opacity="1.00" stroke-width="0.3"><path d="
M 288.00 479.00 
C 289.50 490.24 298.52 494.88 310.00 495.00 C 321.48 495.12 317.89 514.09 318.00 525.00 C 318.11 535.91 317.87 551.20 318.00 563.00 C 318.13 574.80 317.77 590.04 318.00 602.00 C 318.23 613.96 317.50 628.49 318.00 640.00 C 318.50 651.51 316.46 666.99 319.00 677.00 C 321.53 687.02 329.25 693.57 338.00 697.00
C 338.00 697.00 338.55 696.85 339.00 697.00
C 354.76 702.04 370.83 698.40 388.00 699.00 C 405.17 699.60 420.88 699.52 439.00 699.00 C 457.12 698.48 452.75 675.53 453.00 661.00 C 453.25 646.47 452.18 625.27 453.00 610.00 C 453.82 594.73 450.62 574.56 453.98 559.98 C 457.33 545.39 470.89 539.00 485.00 539.00 C 499.11 539.00 521.69 539.43 536.00 539.00 C 550.31 538.57 564.16 543.84 568.92 558.08 C 573.69 572.31 569.92 592.08 571.00 607.00 C 572.08 621.92 569.92 644.33 571.00 658.00 C 572.08 671.67 565.23 696.65 582.07 698.93 C 598.92 701.20 616.53 699.47 633.00 699.00 C 649.47 698.53 668.62 702.73 684.00 698.00
C 693.85 694.97 701.46 685.94 704.00 676.00
C 705.92 668.50 704.81 661.03 705.00 653.00 C 705.19 644.97 704.93 636.14 705.00 628.00 C 705.07 619.86 705.02 612.24 705.00 604.00 C 704.98 595.76 705.11 587.37 705.00 579.00 C 704.89 570.63 705.29 563.65 705.00 555.00 C 704.71 546.35 705.63 539.19 705.00 530.00 C 704.37 520.81 706.46 516.53 705.00 506.00 C 703.54 495.47 710.34 496.15 719.00 495.00
C 746.31 491.36 732.74 458.43 716.75 449.25 C 700.75 440.08 688.75 423.11 673.75 412.25 C 658.76 401.38 646.03 387.24 631.70 375.30 C 617.36 363.36 602.53 351.03 588.75 338.25 C 574.98 325.47 559.69 315.14 546.75 301.25 C 533.81 287.36 509.89 273.61 493.75 287.75 C 477.62 301.89 466.31 311.09 451.25 324.25 C 436.19 337.41 422.95 348.68 408.25 361.25 C 393.55 373.81 380.71 385.78 366.25 398.25 C 351.78 410.71 337.31 422.20 323.25 435.25 C 309.19 448.30 288.60 458.09 288.00 479.00 Z"/>
</g>
<g fill="None" fill-opacity="0.0" stroke="#513AFF" stroke-opacity="1.00" stroke-width="0.3"><path d="
M 338.00 697.00 
C 329.25 693.57 321.53 687.02 319.00 677.00 C 316.46 666.99 318.50 651.51 318.00 640.00 C 317.50 628.49 318.23 613.96 318.00 602.00 C 317.77 590.04 318.13 574.80 318.00 563.00 C 317.87 551.20 318.11 535.91 318.00 525.00 C 317.89 514.09 321.48 495.12 310.00 495.00 C 298.52 494.88 289.50 490.24 288.00 479.00
C 287.85 484.24 291.66 494.52 300.33 495.67 C 309.00 496.83 319.75 496.94 317.00 509.00 C 314.25 521.06 318.26 528.09 317.00 539.00 C 315.74 549.91 317.62 558.64 317.00 569.00 C 316.38 579.36 317.43 590.02 317.00 600.00 C 316.57 609.98 317.53 620.57 317.00 630.00 C 316.47 639.43 317.99 651.50 317.00 660.00 C 316.01 668.50 318.19 679.99 321.70 685.30 C 325.20 690.61 333.86 700.03 338.00 697.00 Z"/>
</g>
<g fill="None" fill-opacity="0.0" stroke="#4F33FF" stroke-opacity="1.00" stroke-width="0.3"><path d="
M 704.00 676.00 
C 706.41 670.15 706.23 661.05 706.00 653.00 C 705.77 644.95 706.12 637.14 706.00 629.00 C 705.88 620.86 706.11 612.21 706.00 604.00 C 705.89 595.79 706.16 588.30 706.00 580.00 C 705.84 571.70 706.31 563.45 706.00 555.00 C 705.69 546.55 706.71 539.83 706.00 531.00 C 705.29 522.17 707.51 515.57 706.00 506.00 C 704.49 496.43 713.35 497.33 719.00 495.00
C 710.34 496.15 703.54 495.47 705.00 506.00 C 706.46 516.53 704.37 520.81 705.00 530.00 C 705.63 539.19 704.71 546.35 705.00 555.00 C 705.29 563.65 704.89 570.63 705.00 579.00 C 705.11 587.37 704.98 595.76 705.00 604.00 C 705.02 612.24 705.07 619.86 705.00 628.00 C 704.93 636.14 705.19 644.97 705.00 653.00 C 704.81 661.03 705.92 668.50 704.00 676.00 Z"/>
</g>
<g fill="None" fill-opacity="0.0" stroke="#573DFF" stroke-opacity="1.00" stroke-width="0.3"><path d="
M 339.00 697.00 
C 341.86 704.26 360.00 698.61 368.00 700.00 C 376.00 701.39 391.02 699.21 400.00 700.00 C 408.98 700.79 423.18 699.30 432.00 700.00 C 440.82 700.70 451.79 699.71 453.67 689.67 C 455.55 679.63 453.35 668.33 454.00 658.00 C 454.65 647.67 453.66 636.30 454.00 626.00 C 454.34 615.70 453.74 604.04 454.00 594.00 C 454.26 583.96 453.20 572.07 455.01 563.01 C 456.82 553.94 460.02 548.73 467.92 543.92 C 475.83 539.12 486.54 540.08 496.00 540.00 C 505.46 539.92 518.70 539.94 528.00 540.00 C 537.30 540.06 548.51 539.08 555.75 544.25 C 563.00 549.41 567.77 553.77 569.00 563.00 C 570.23 572.23 568.34 585.02 569.00 595.00 C 569.66 604.98 568.46 616.74 569.00 627.00 C 569.54 637.26 568.23 648.73 569.00 659.00 C 569.77 669.27 567.00 680.20 570.08 689.92 C 573.15 699.65 582.62 700.56 592.00 700.00 C 601.38 699.44 614.21 700.39 624.00 700.00 C 633.79 699.61 646.38 700.47 656.00 700.00 C 665.62 699.53 678.10 701.77 684.00 698.00
C 668.62 702.73 649.47 698.53 633.00 699.00 C 616.53 699.47 598.92 701.20 582.07 698.93 C 565.23 696.65 572.08 671.67 571.00 658.00 C 569.92 644.33 572.08 621.92 571.00 607.00 C 569.92 592.08 573.69 572.31 568.92 558.08 C 564.16 543.84 550.31 538.57 536.00 539.00 C 521.69 539.43 499.11 539.00 485.00 539.00 C 470.89 539.00 457.33 545.39 453.98 559.98 C 450.62 574.56 453.82 594.73 453.00 610.00 C 452.18 625.27 453.25 646.47 453.00 661.00 C 452.75 675.53 457.12 698.48 439.00 699.00 C 420.88 699.52 405.17 699.60 388.00 699.00 C 370.83 698.40 354.76 702.04 339.00 697.00 Z"/>
</g>
<g fill="#7457FF" fill-opacity="1.00" stroke="None">
<path d="
M 0.00 1024.00 
L 1024.00 1024.00
L 1024.00 0.00
L 0.00 0.00
L 0.00 1024.00
M 719.00 495.00 
C 713.35 497.33 704.49 496.43 706.00 506.00 C 707.51 515.57 705.29 522.17 706.00 531.00 C 706.71 539.83 705.69 546.55 706.00 555.00 C 706.31 563.45 705.84 571.70 706.00 580.00 C 706.16 588.30 705.89 595.79 706.00 604.00 C 706.11 612.21 705.88 620.86 706.00 629.00 C 706.12 637.14 705.77 644.95 706.00 653.00 C 706.23 661.05 706.41 670.15 704.00 676.00
C 701.46 685.94 693.85 694.97 684.00 698.00
C 678.10 701.77 665.62 699.53 656.00 700.00 C 646.38 700.47 633.79 699.61 624.00 700.00 C 614.21 700.39 601.38 699.44 592.00 700.00 C 582.62 700.56 573.15 699.65 570.08 689.92 C 567.00 680.20 569.77 669.27 569.00 659.00 C 568.23 648.73 569.54 637.26 569.00 627.00 C 568.46 616.74 569.66 604.98 569.00 595.00 C 568.34 585.02 570.23 572.23 569.00 563.00 C 567.77 553.77 563.00 549.41 555.75 544.25 C 548.51 539.08 537.30 540.06 528.00 540.00 C 518.70 539.94 505.46 539.92 496.00 540.00 C 486.54 540.08 475.83 539.12 467.92 543.92 C 460.02 548.73 456.82 553.94 455.01 563.01 C 453.20 572.07 454.26 583.96 454.00 594.00 C 453.74 604.04 454.34 615.70 454.00 626.00 C 453.66 636.30 454.65 647.67 454.00 658.00 C 453.35 668.33 455.55 679.63 453.67 689.67 C 451.79 699.71 440.82 700.70 432.00 700.00 C 423.18 699.30 408.98 700.79 400.00 700.00 C 391.02 699.21 376.00 701.39 368.00 700.00 C 360.00 698.61 341.86 704.26 339.00 697.00
C 338.55 696.85 338.00 697.00 338.00 697.00
C 333.86 700.03 325.20 690.61 321.70 685.30 C 318.19 679.99 316.01 668.50 317.00 660.00 C 317.99 651.50 316.47 639.43 317.00 630.00 C 317.53 620.57 316.57 609.98 317.00 600.00 C 317.43 590.02 316.38 579.36 317.00 569.00 C 317.62 558.64 315.74 549.91 317.00 539.00 C 318.26 528.09 314.25 521.06 317.00 509.00 C 319.75 496.94 309.00 496.83 300.33 495.67 C 291.66 494.52 287.85 484.24 288.00 479.00
C 288.60 458.09 309.19 448.30 323.25 435.25 C 337.31 422.20 351.78 410.71 366.25 398.25 C 380.71 385.78 393.55 373.81 408.25 361.25 C 422.95 348.68 436.19 337.41 451.25 324.25 C 466.31 311.09 477.62 301.89 493.75 287.75 C 509.89 273.61 533.81 287.36 546.75 301.25 C 559.69 315.14 574.98 325.47 588.75 338.25 C 602.53 351.03 617.36 363.36 631.70 375.30 C 646.03 387.24 658.76 401.38 673.75 412.25 C 688.75 423.11 700.75 440.08 716.75 449.25 C 732.74 458.43 746.31 491.36 719.00 495.00 Z"/>
</g>
<g fill="#FEFEFE" fill-opacity="1.00" stroke="None">
<path d="
M 288.00 479.00 
C 289.50 490.24 298.52 494.88 310.00 495.00 C 321.48 495.12 317.89 514.09 318.00 525.00 C 318.11 535.91 317.87 551.20 318.00 563.00 C 318.13 574.80 317.77 590.04 318.00 602.00 C 318.23 613.96 317.50 628.49 318.00 640.00 C 318.50 651.51 316.46 666.99 319.00 677.00 C 321.53 687.02 329.25 693.57 338.00 697.00
C 338.00 697.00 338.55 696.85 339.00 697.00
C 354.76 702.04 370.83 698.40 388.00 699.00 C 405.17 699.60 420.88 699.52 439.00 699.00 C 457.12 698.48 452.75 675.53 453.00 661.00 C 453.25 646.47 452.18 625.27 453.00 610.00 C 453.82 594.73 450.62 574.56 453.98 559.98 C 457.33 545.39 470.89 539.00 485.00 539.00 C 499.11 539.00 521.69 539.43 536.00 539.00 C 550.31 538.57 564.16 543.84 568.92 558.08 C 573.69 572.31 569.92 592.08 571.00 607.00 C 572.08 621.92 569.92 644.33 571.00 658.00 C 572.08 671.67 565.23 696.65 582.07 698.93 C 598.92 701.20 616.53 699.47 633.00 699.00 C 649.47 698.53 668.62 702.73 684.00 698.00
C 693.85 694.97 701.46 685.94 704.00 676.00
C 705.92 668.50 704.81 661.03 705.00 653.00 C 705.19 644.97 704.93 636.14 705.00 628.00 C 705.07 619.86 705.02 612.24 705.00 604.00 C 704.98 595.76 705.11 587.37 705.00 579.00 C 704.89 570.63 705.29 563.65 705.00 555.00 C 704.71 546.35 705.63 539.19 705.00 530.00 C 704.37 520.81 706.46 516.53 705.00 506.00 C 703.54 495.47 710.34 496.15 719.00 495.00
C 746.31 491.36 732.74 458.43 716.75 449.25 C 700.75 440.08 688.75 423.11 673.75 412.25 C 658.76 401.38 646.03 387.24 631.70 375.30 C 617.36 363.36 602.53 351.03 588.75 338.25 C 574.98 325.47 559.69 315.14 546.75 301.25 C 533.81 287.36 509.89 273.61 493.75 287.75 C 477.62 301.89 466.31 311.09 451.25 324.25 C 436.19 337.41 422.95 348.68 408.25 361.25 C 393.55 373.81 380.71 385.78 366.25 398.25 C 351.78 410.71 337.31 422.20 323.25 435.25 C 309.19 448.30 288.60 458.09 288.00 479.00 Z"/>
</g>
<g fill="#513AFF" fill-opacity="1.00" stroke="None">
<path d="
M 338.00 697.00 
C 329.25 693.57 321.53 687.02 319.00 677.00 C 316.46 666.99 318.50 651.51 318.00 640.00 C 317.50 628.49 318.23 613.96 318.00 602.00 C 317.77 590.04 318.13 574.80 318.00 563.00 C 317.87 551.20 318.11 535.91 318.00 525.00 C 317.89 514.09 321.48 495.12 310.00 495.00 C 298.52 494.88 289.50 490.24 288.00 479.00
C 287.85 484.24 291.66 494.52 300.33 495.67 C 309.00 496.83 319.75 496.94 317.00 509.00 C 314.25 521.06 318.26 528.09 317.00 539.00 C 315.74 549.91 317.62 558.64 317.00 569.00 C 316.38 579.36 317.43 590.02 317.00 600.00 C 316.57 609.98 317.53 620.57 317.00 630.00 C 316.47 639.43 317.99 651.50 317.00 660.00 C 316.01 668.50 318.19 679.99 321.70 685.30 C 325.20 690.61 333.86 700.03 338.00 697.00 Z"/>
</g>
<g fill="#4F33FF" fill-opacity="1.00" stroke="None">
<path d="
M 704.00 676.00 
C 706.41 670.15 706.23 661.05 706.00 653.00 C 705.77 644.95 706.12 637.14 706.00 629.00 C 705.88 620.86 706.11 612.21 706.00 604.00 C 705.89 595.79 706.16 588.30 706.00 580.00 C 705.84 571.70 706.31 563.45 706.00 555.00 C 705.69 546.55 706.71 539.83 706.00 531.00 C 705.29 522.17 707.51 515.57 706.00 506.00 C 704.49 496.43 713.35 497.33 719.00 495.00
C 710.34 496.15 703.54 495.47 705.00 506.00 C 706.46 516.53 704.37 520.81 705.00 530.00 C 705.63 539.19 704.71 546.35 705.00 555.00 C 705.29 563.65 704.89 570.63 705.00 579.00 C 705.11 587.37 704.98 595.76 705.00 604.00 C 705.02 612.24 705.07 619.86 705.00 628.00 C 704.93 636.14 705.19 644.97 705.00 653.00 C 704.81 661.03 705.92 668.50 704.00 676.00 Z"/>
</g>
<g fill="#573DFF" fill-opacity="1.00" stroke="None">
<path d="
M 339.00 697.00 
C 341.86 704.26 360.00 698.61 368.00 700.00 C 376.00 701.39 391.02 699.21 400.00 700.00 C 408.98 700.79 423.18 699.30 432.00 700.00 C 440.82 700.70 451.79 699.71 453.67 689.67 C 455.55 679.63 453.35 668.33 454.00 658.00 C 454.65 647.67 453.66 636.30 454.00 626.00 C 454.34 615.70 453.74 604.04 454.00 594.00 C 454.26 583.96 453.20 572.07 455.01 563.01 C 456.82 553.94 460.02 548.73 467.92 543.92 C 475.83 539.12 486.54 540.08 496.00 540.00 C 505.46 539.92 518.70 539.94 528.00 540.00 C 537.30 540.06 548.51 539.08 555.75 544.25 C 563.00 549.41 567.77 553.77 569.00 563.00 C 570.23 572.23 568.34 585.02 569.00 595.00 C 569.66 604.98 568.46 616.74 569.00 627.00 C 569.54 637.26 568.23 648.73 569.00 659.00 C 569.77 669.27 567.00 680.20 570.08 689.92 C 573.15 699.65 582.62 700.56 592.00 700.00 C 601.38 699.44 614.21 700.39 624.00 700.00 C 633.79 699.61 646.38 700.47 656.00 700.00 C 665.62 699.53 678.10 701.77 684.00 698.00
C 668.62 702.73 649.47 698.53 633.00 699.00 C 616.53 699.47 598.92 701.20 582.07 698.93 C 565.23 696.65 572.08 671.67 571.00 658.00 C 569.92 644.33 572.08 621.92 571.00 607.00 C 569.92 592.08 573.69 572.31 568.92 558.08 C 564.16 543.84 550.31 538.57 536.00 539.00 C 521.69 539.43 499.11 539.00 485.00 539.00 C 470.89 539.00 457.33 545.39 453.98 559.98 C 450.62 574.56 453.82 594.73 453.00 610.00 C 452.18 625.27 453.25 646.47 453.00 661.00 C 452.75 675.53 457.12 698.48 439.00 699.00 C 420.88 699.52 405.17 699.60 388.00 699.00 C 370.83 698.40 354.76 702.04 339.00 697.00 Z"/>
</g>
</svg>